<mxfile host="app.diagrams.net" modified="2024-07-14T19:28:59.443Z" agent="Mozilla/5.0 (X11; Linux x86_64; rv:128.0) Gecko/20100101 Firefox/128.0" etag="QLEuUCQZ4N6LvKJSJ_AS" version="24.6.5" type="device">
  <diagram name="Page-1" id="9ZkAjz7523qdOMDxZ4Rt">
    <mxGraphModel dx="1434" dy="1973" grid="1" gridSize="10" guides="1" tooltips="1" connect="1" arrows="1" fold="1" page="1" pageScale="1" pageWidth="850" pageHeight="1100" math="0" shadow="0">
      <root>
        <mxCell id="0" />
        <mxCell id="1" parent="0" />
        <mxCell id="HSj85IsyVF8OwL0hn5ch-1" value="conv 3x3x3" style="rounded=1;whiteSpace=wrap;html=1;direction=south;fillColor=#1ba1e2;strokeColor=#006EAF;fontColor=#ffffff;" vertex="1" parent="1">
          <mxGeometry x="270" y="-50" width="120" height="30" as="geometry" />
        </mxCell>
        <mxCell id="HSj85IsyVF8OwL0hn5ch-60" value="" style="endArrow=classic;html=1;rounded=0;entryX=0;entryY=0.5;entryDx=0;entryDy=0;" edge="1" parent="1">
          <mxGeometry width="50" height="50" relative="1" as="geometry">
            <mxPoint x="329.5" y="-150" as="sourcePoint" />
            <mxPoint x="330" y="-120" as="targetPoint" />
          </mxGeometry>
        </mxCell>
        <mxCell id="HSj85IsyVF8OwL0hn5ch-62" value="" style="endArrow=classic;html=1;rounded=0;entryX=0;entryY=0.5;entryDx=0;entryDy=0;" edge="1" parent="1">
          <mxGeometry width="50" height="50" relative="1" as="geometry">
            <mxPoint x="329.5" y="220" as="sourcePoint" />
            <mxPoint x="330" y="250" as="targetPoint" />
          </mxGeometry>
        </mxCell>
        <mxCell id="HSj85IsyVF8OwL0hn5ch-63" value="conv 192x3x3" style="rounded=1;whiteSpace=wrap;html=1;direction=south;fillColor=#1ba1e2;strokeColor=#006EAF;fontColor=#ffffff;" vertex="1" parent="1">
          <mxGeometry x="90" width="120" height="30" as="geometry" />
        </mxCell>
        <mxCell id="HSj85IsyVF8OwL0hn5ch-64" value="conv 192x3x3" style="rounded=1;whiteSpace=wrap;html=1;direction=south;fillColor=#1ba1e2;strokeColor=#006EAF;fontColor=#ffffff;" vertex="1" parent="1">
          <mxGeometry x="270" y="190" width="120" height="30" as="geometry" />
        </mxCell>
        <mxCell id="HSj85IsyVF8OwL0hn5ch-65" value="conv 192x3x3" style="rounded=1;whiteSpace=wrap;html=1;direction=south;fillColor=#1ba1e2;strokeColor=#006EAF;fontColor=#ffffff;" vertex="1" parent="1">
          <mxGeometry x="270" y="310" width="120" height="30" as="geometry" />
        </mxCell>
        <mxCell id="HSj85IsyVF8OwL0hn5ch-68" value="conv 3x3x3" style="rounded=1;whiteSpace=wrap;html=1;direction=north;fillColor=#1ba1e2;strokeColor=#006EAF;fontColor=#ffffff;" vertex="1" parent="1">
          <mxGeometry x="90" y="240" width="120" height="30" as="geometry" />
        </mxCell>
        <mxCell id="HSj85IsyVF8OwL0hn5ch-69" value="" style="endArrow=classic;html=1;rounded=0;entryX=0;entryY=0.5;entryDx=0;entryDy=0;" edge="1" parent="1">
          <mxGeometry width="50" height="50" relative="1" as="geometry">
            <mxPoint x="150" y="-120" as="sourcePoint" />
            <mxPoint x="149.5" y="-150" as="targetPoint" />
          </mxGeometry>
        </mxCell>
        <mxCell id="HSj85IsyVF8OwL0hn5ch-70" value="" style="endArrow=classic;html=1;rounded=0;entryX=0;entryY=0.5;entryDx=0;entryDy=0;" edge="1" parent="1">
          <mxGeometry width="50" height="50" relative="1" as="geometry">
            <mxPoint x="150" y="120" as="sourcePoint" />
            <mxPoint x="149.5" y="90" as="targetPoint" />
          </mxGeometry>
        </mxCell>
        <mxCell id="HSj85IsyVF8OwL0hn5ch-71" value="" style="endArrow=classic;html=1;rounded=0;entryX=0;entryY=0.5;entryDx=0;entryDy=0;" edge="1" parent="1">
          <mxGeometry width="50" height="50" relative="1" as="geometry">
            <mxPoint x="150" y="180" as="sourcePoint" />
            <mxPoint x="149.5" y="150" as="targetPoint" />
          </mxGeometry>
        </mxCell>
        <mxCell id="HSj85IsyVF8OwL0hn5ch-72" value="conv 192x3x3" style="rounded=1;whiteSpace=wrap;html=1;direction=north;fillColor=#1ba1e2;strokeColor=#006EAF;fontColor=#ffffff;" vertex="1" parent="1">
          <mxGeometry x="270" y="70" width="120" height="30" as="geometry" />
        </mxCell>
        <mxCell id="HSj85IsyVF8OwL0hn5ch-73" value="conv 192x3x3" style="rounded=1;whiteSpace=wrap;html=1;direction=north;fillColor=#1ba1e2;strokeColor=#006EAF;fontColor=#ffffff;" vertex="1" parent="1">
          <mxGeometry x="90" y="120" width="120" height="30" as="geometry" />
        </mxCell>
        <mxCell id="HSj85IsyVF8OwL0hn5ch-77" value="" style="endArrow=classic;html=1;rounded=0;entryX=0;entryY=0.5;entryDx=0;entryDy=0;" edge="1" parent="1">
          <mxGeometry width="50" height="50" relative="1" as="geometry">
            <mxPoint x="329.5" y="280" as="sourcePoint" />
            <mxPoint x="330" y="310" as="targetPoint" />
          </mxGeometry>
        </mxCell>
        <mxCell id="HSj85IsyVF8OwL0hn5ch-78" value="" style="endArrow=classic;html=1;rounded=0;entryX=0;entryY=0.5;entryDx=0;entryDy=0;" edge="1" parent="1">
          <mxGeometry width="50" height="50" relative="1" as="geometry">
            <mxPoint x="150" y="240" as="sourcePoint" />
            <mxPoint x="149.5" y="210" as="targetPoint" />
          </mxGeometry>
        </mxCell>
        <mxCell id="HSj85IsyVF8OwL0hn5ch-79" value="GDN" style="rounded=1;whiteSpace=wrap;html=1;direction=north;fillColor=#60a917;strokeColor=#2D7600;fontColor=#ffffff;" vertex="1" parent="1">
          <mxGeometry x="120" y="180" width="60" height="30" as="geometry" />
        </mxCell>
        <mxCell id="HSj85IsyVF8OwL0hn5ch-80" value="GDN" style="rounded=1;whiteSpace=wrap;html=1;direction=north;fillColor=#60a917;strokeColor=#2D7600;fontColor=#ffffff;" vertex="1" parent="1">
          <mxGeometry x="300" y="250" width="60" height="30" as="geometry" />
        </mxCell>
        <mxCell id="HSj85IsyVF8OwL0hn5ch-81" value="" style="endArrow=classic;html=1;rounded=0;entryX=0;entryY=0.5;entryDx=0;entryDy=0;" edge="1" parent="1">
          <mxGeometry width="50" height="50" relative="1" as="geometry">
            <mxPoint x="329.5" y="100" as="sourcePoint" />
            <mxPoint x="330" y="130" as="targetPoint" />
          </mxGeometry>
        </mxCell>
        <mxCell id="HSj85IsyVF8OwL0hn5ch-82" value="" style="endArrow=classic;html=1;rounded=0;entryX=0;entryY=0.5;entryDx=0;entryDy=0;" edge="1" parent="1">
          <mxGeometry width="50" height="50" relative="1" as="geometry">
            <mxPoint x="150" y="60" as="sourcePoint" />
            <mxPoint x="149.5" y="30" as="targetPoint" />
          </mxGeometry>
        </mxCell>
        <mxCell id="HSj85IsyVF8OwL0hn5ch-84" value="GDN" style="rounded=1;whiteSpace=wrap;html=1;direction=north;fillColor=#60a917;strokeColor=#2D7600;fontColor=#ffffff;" vertex="1" parent="1">
          <mxGeometry x="300" y="130" width="60" height="30" as="geometry" />
        </mxCell>
        <mxCell id="HSj85IsyVF8OwL0hn5ch-85" value="GDN" style="rounded=1;whiteSpace=wrap;html=1;direction=north;fillColor=#60a917;strokeColor=#2D7600;fontColor=#ffffff;" vertex="1" parent="1">
          <mxGeometry x="120" y="60" width="60" height="30" as="geometry" />
        </mxCell>
        <mxCell id="HSj85IsyVF8OwL0hn5ch-86" value="" style="endArrow=classic;html=1;rounded=0;entryX=0;entryY=0.5;entryDx=0;entryDy=0;" edge="1" parent="1">
          <mxGeometry width="50" height="50" relative="1" as="geometry">
            <mxPoint x="329.5" y="-80" as="sourcePoint" />
            <mxPoint x="330" y="-50" as="targetPoint" />
          </mxGeometry>
        </mxCell>
        <mxCell id="HSj85IsyVF8OwL0hn5ch-87" value="conv 192x3x3" style="rounded=1;whiteSpace=wrap;html=1;direction=north;fillColor=#1ba1e2;strokeColor=#006EAF;fontColor=#ffffff;" vertex="1" parent="1">
          <mxGeometry x="90" y="-120" width="120" height="30" as="geometry" />
        </mxCell>
        <mxCell id="HSj85IsyVF8OwL0hn5ch-88" value="" style="endArrow=classic;html=1;rounded=0;entryX=0;entryY=0.5;entryDx=0;entryDy=0;" edge="1" parent="1">
          <mxGeometry width="50" height="50" relative="1" as="geometry">
            <mxPoint x="329.5" y="40" as="sourcePoint" />
            <mxPoint x="330" y="70" as="targetPoint" />
          </mxGeometry>
        </mxCell>
        <mxCell id="HSj85IsyVF8OwL0hn5ch-90" value="" style="endArrow=classic;html=1;rounded=0;entryX=0;entryY=0.5;entryDx=0;entryDy=0;" edge="1" parent="1">
          <mxGeometry width="50" height="50" relative="1" as="geometry">
            <mxPoint x="150" as="sourcePoint" />
            <mxPoint x="149.5" y="-30" as="targetPoint" />
          </mxGeometry>
        </mxCell>
        <mxCell id="HSj85IsyVF8OwL0hn5ch-91" value="" style="endArrow=classic;html=1;rounded=0;entryX=0;entryY=0.5;entryDx=0;entryDy=0;" edge="1" parent="1">
          <mxGeometry width="50" height="50" relative="1" as="geometry">
            <mxPoint x="329.5" y="-20" as="sourcePoint" />
            <mxPoint x="330" y="10" as="targetPoint" />
          </mxGeometry>
        </mxCell>
        <mxCell id="HSj85IsyVF8OwL0hn5ch-92" value="" style="endArrow=classic;html=1;rounded=0;entryX=0;entryY=0.5;entryDx=0;entryDy=0;" edge="1" parent="1">
          <mxGeometry width="50" height="50" relative="1" as="geometry">
            <mxPoint x="150" y="-60" as="sourcePoint" />
            <mxPoint x="149.5" y="-90" as="targetPoint" />
          </mxGeometry>
        </mxCell>
        <mxCell id="HSj85IsyVF8OwL0hn5ch-93" value="GDN" style="rounded=1;whiteSpace=wrap;html=1;direction=north;fillColor=#60a917;strokeColor=#2D7600;fontColor=#ffffff;" vertex="1" parent="1">
          <mxGeometry x="300" y="10" width="60" height="30" as="geometry" />
        </mxCell>
        <mxCell id="HSj85IsyVF8OwL0hn5ch-94" value="GDN" style="rounded=1;whiteSpace=wrap;html=1;direction=north;fillColor=#60a917;strokeColor=#2D7600;fontColor=#ffffff;" vertex="1" parent="1">
          <mxGeometry x="120" y="-60" width="60" height="30" as="geometry" />
        </mxCell>
        <mxCell id="HSj85IsyVF8OwL0hn5ch-96" value="" style="endArrow=classic;html=1;rounded=0;" edge="1" parent="1">
          <mxGeometry width="50" height="50" relative="1" as="geometry">
            <mxPoint x="149.5" y="410" as="sourcePoint" />
            <mxPoint x="149.5" y="340" as="targetPoint" />
          </mxGeometry>
        </mxCell>
        <mxCell id="HSj85IsyVF8OwL0hn5ch-98" value="" style="endArrow=none;html=1;rounded=0;entryX=1;entryY=0.5;entryDx=0;entryDy=0;" edge="1" parent="1" target="HSj85IsyVF8OwL0hn5ch-65">
          <mxGeometry width="50" height="50" relative="1" as="geometry">
            <mxPoint x="330" y="410" as="sourcePoint" />
            <mxPoint x="290" y="290" as="targetPoint" />
          </mxGeometry>
        </mxCell>
        <mxCell id="HSj85IsyVF8OwL0hn5ch-99" value="Binarizer" style="rounded=1;whiteSpace=wrap;html=1;fillColor=#e51400;strokeColor=#B20000;fontColor=#ffffff;" vertex="1" parent="1">
          <mxGeometry x="180" y="380" width="120" height="60" as="geometry" />
        </mxCell>
        <mxCell id="HSj85IsyVF8OwL0hn5ch-100" value="" style="endArrow=classic;html=1;rounded=0;entryX=1;entryY=0.5;entryDx=0;entryDy=0;" edge="1" parent="1" target="HSj85IsyVF8OwL0hn5ch-99">
          <mxGeometry width="50" height="50" relative="1" as="geometry">
            <mxPoint x="330" y="410" as="sourcePoint" />
            <mxPoint x="620" y="170" as="targetPoint" />
          </mxGeometry>
        </mxCell>
        <mxCell id="HSj85IsyVF8OwL0hn5ch-106" value="" style="endArrow=none;html=1;rounded=0;entryX=0;entryY=0.5;entryDx=0;entryDy=0;" edge="1" parent="1" target="HSj85IsyVF8OwL0hn5ch-99">
          <mxGeometry width="50" height="50" relative="1" as="geometry">
            <mxPoint x="150" y="410" as="sourcePoint" />
            <mxPoint x="620" y="170" as="targetPoint" />
          </mxGeometry>
        </mxCell>
        <mxCell id="HSj85IsyVF8OwL0hn5ch-107" value="RNN 192x192x3" style="rounded=1;whiteSpace=wrap;html=1;fillColor=#a20025;fontColor=#ffffff;strokeColor=#6F0000;" vertex="1" parent="1">
          <mxGeometry x="80" y="300" width="140" height="40" as="geometry" />
        </mxCell>
        <mxCell id="HSj85IsyVF8OwL0hn5ch-108" value="" style="endArrow=classic;html=1;rounded=0;entryX=0;entryY=0.5;entryDx=0;entryDy=0;" edge="1" parent="1">
          <mxGeometry width="50" height="50" relative="1" as="geometry">
            <mxPoint x="150" y="300" as="sourcePoint" />
            <mxPoint x="149.5" y="270" as="targetPoint" />
          </mxGeometry>
        </mxCell>
        <mxCell id="HSj85IsyVF8OwL0hn5ch-109" value="RNN 192x192x3" style="rounded=1;whiteSpace=wrap;html=1;fillColor=#a20025;fontColor=#ffffff;strokeColor=#6F0000;" vertex="1" parent="1">
          <mxGeometry x="260" y="-120" width="140" height="40" as="geometry" />
        </mxCell>
        <mxCell id="HSj85IsyVF8OwL0hn5ch-110" value="" style="endArrow=classic;html=1;rounded=0;entryX=0;entryY=0.5;entryDx=0;entryDy=0;" edge="1" parent="1">
          <mxGeometry width="50" height="50" relative="1" as="geometry">
            <mxPoint x="329.5" y="160" as="sourcePoint" />
            <mxPoint x="330" y="190" as="targetPoint" />
          </mxGeometry>
        </mxCell>
      </root>
    </mxGraphModel>
  </diagram>
</mxfile>
